                Journey - Live In Tokyo 1983[Rip].AVI

                 # Don't Stop Believin'.

                 # Faithfully.

                 # Open Arms.

                 # Separate Ways.

                 # Who's Crying Now.



      Format : AVI
      Format/Info : Audio Video Interleave
      File size : 670 MiB
      Duration : 22mn 15s
      Overall bit rate : 4 204 Kbps
   Video #0
      ID : 0
      Format : MPEG-4 Visual
      Format profile : Simple@L3
      Format settings, BVOP : No
      Format settings, QPel : No
      Format settings, GMC : No warppoints
      Format settings, Matrix : Default (H.263)
      Codec ID : XVID
      Codec ID/Hint : XviD
      Duration : 22mn 15s
      Bit rate : 4 004 Kbps
      Width : 1 280 pixels
      Height : 720 pixels
      Display aspect ratio : 16:9
      Frame rate : 30.000 fps
      Resolution : 24 bits
      Colorimetry : 4:2:0
      Scan type : Progressive
      Bits/(Pixel*Frame) : 0.145
      Stream size : 638 MiB (95%)
      Writing library : ZJMedia MPEG Encoder
   Audio #1
      ID : 1
      Format : AC-3
      Format/Info : Audio Coding 3
      Codec ID : 2000
      Duration : 22mn 15s
      Bit rate mode : Constant
      Bit rate : 192 Kbps
      Channel(s) : 2 channels
      Channel positions : L R
      Sampling rate : 48.0 KHz
      Stream size : 30.6 MiB (5%)
      Alignment : Split accross interleaves
      Interleave, duration : 1000 ms (30.00 video frames)